<?xml version="1.0" standalone="no"?>
<!DOCTYPE svg PUBLIC "-//W3C//DTD SVG 20010904//EN"
 "http://www.w3.org/TR/2001/REC-SVG-20010904/DTD/svg10.dtd">
<svg version="1.0" xmlns="http://www.w3.org/2000/svg"
 width="2040.000000pt" height="2040.000000pt" viewBox="0 0 2040.000000 2040.000000"
 preserveAspectRatio="xMidYMid meet">
<metadata>
Created by potrace 1.11, written by Peter Selinger 2001-2013
</metadata>
<g transform="translate(0.000000,2040.000000) scale(0.100000,-0.100000)"
fill="#000000" stroke="none">
<path d="M3680 14536 l0 -4404 -35 -143 c-19 -79 -37 -160 -40 -179 -3 -19 -8
-42 -10 -50 -2 -8 -7 -28 -10 -45 -2 -16 -7 -41 -10 -55 -11 -54 -25 -137 -29
-175 -3 -22 -8 -58 -11 -80 -3 -22 -8 -56 -10 -75 -3 -19 -7 -51 -10 -70 -32
-241 -44 -637 -31 -965 4 -93 9 -177 11 -185 2 -8 7 -55 10 -104 4 -50 8 -97
10 -105 1 -9 6 -43 9 -76 32 -277 110 -650 201 -955 63 -210 169 -507 225
-627 11 -24 20 -45 20 -47 0 -20 207 -435 279 -560 l51 -88 -168 6 c-93 4
-203 9 -243 11 -217 13 -270 16 -329 21 -36 2 -83 7 -105 9 -22 3 -62 7 -90
10 -74 9 -212 34 -239 45 -13 5 -82 12 -152 15 -71 4 -165 9 -209 11 -251 13
-659 16 -716 5 -102 -21 -127 -37 -145 -96 -14 -49 -17 -52 -61 -66 -49 -15
-79 -47 -87 -91 -3 -15 -19 -74 -37 -130 -18 -57 -34 -107 -35 -113 -1 -5 -14
-50 -29 -100 -24 -80 -37 -126 -49 -175 -2 -8 -15 -60 -29 -115 -14 -55 -28
-113 -31 -130 -2 -16 -10 -55 -16 -85 -6 -30 -13 -66 -15 -80 -11 -73 -17
-106 -20 -120 -2 -8 -7 -46 -11 -85 -3 -38 -8 -79 -10 -90 -24 -122 -23 -633
2 -760 2 -11 6 -40 10 -65 18 -152 128 -543 170 -607 8 -12 14 -26 14 -31 0
-18 125 -241 182 -324 59 -86 60 -87 116 -99 89 -18 380 -16 702 6 19 1 87 6
150 10 63 4 122 9 131 10 9 2 62 6 119 10 56 4 110 8 119 10 9 1 57 6 106 9
50 4 106 9 125 11 64 7 174 17 221 20 25 1 67 5 95 9 27 3 83 8 124 12 41 3
91 7 110 9 19 2 73 6 120 10 47 4 95 8 107 10 165 26 1051 26 1413 0 25 -1 95
-6 155 -10 130 -8 204 -13 264 -20 24 -3 76 -7 115 -10 71 -5 135 -12 191 -19
17 -2 55 -7 85 -10 188 -22 330 -41 420 -56 30 -5 73 -12 95 -15 23 -3 50 -7
60 -9 45 -8 144 -20 260 -31 272 -26 1251 -26 1805 0 52 3 163 7 245 10 83 3
189 7 237 10 49 3 141 7 205 10 139 6 239 11 383 19 58 4 146 8 195 11 110 6
274 15 375 21 41 2 120 6 175 9 55 3 134 7 175 10 41 2 118 6 170 9 52 3 149
8 215 12 148 9 604 9 905 0 124 -3 299 -9 390 -11 91 -3 244 -7 340 -10 449
-13 556 -16 715 -20 94 -3 258 -7 365 -10 107 -3 292 -7 410 -10 118 -3 307
-7 420 -10 721 -20 1349 -28 2105 -29 997 -1 1273 11 1338 60 12 9 39 41 60
71 21 30 50 58 63 64 90 33 247 350 348 700 19 68 38 135 41 149 24 114 56
283 61 320 3 25 7 52 9 60 19 73 28 654 12 765 -4 28 -9 68 -12 90 -3 22 -7
51 -10 65 -3 14 -8 41 -11 60 -3 19 -7 43 -10 52 -3 9 -6 25 -8 35 -38 190
-113 398 -215 598 l-67 130 -189 -4 c-561 -13 -1346 -3 -1850 23 -265 14 -330
18 -495 30 -30 3 -95 7 -145 11 -49 3 -106 8 -125 10 -96 10 -330 19 -542 19
-131 1 -238 2 -238 4 0 1 18 35 40 75 34 60 211 416 240 482 109 246 251 655
316 910 11 45 12 48 18 75 3 14 10 45 17 70 22 90 46 204 53 255 4 23 9 52 11
65 6 26 33 204 40 255 8 65 15 123 20 180 4 33 8 78 10 100 23 219 23 884 0
1004 -1 9 -6 52 -10 96 -3 44 -8 91 -10 105 -2 14 -6 48 -10 75 -3 28 -10 79
-16 115 -19 121 -25 157 -44 256 -9 43 -18 90 -21 104 -3 14 -20 89 -39 167
l-34 142 0 4391 c0 2415 -3 4395 -6 4400 -3 5 -2327 9 -6000 9 l-5995 0 0
-4403z"/>
<path d="M6599 1660 c-78 -22 -109 -69 -124 -185 -3 -25 -14 -46 -27 -56 -22
-17 -18 -39 8 -39 12 0 14 -28 14 -165 l0 -164 -30 -16 c-17 -9 -28 -19 -26
-24 7 -11 199 -7 203 4 1 6 -12 17 -30 25 l-32 15 -1 163 -1 162 31 1 c17 1
36 1 42 0 12 -1 28 28 19 37 -2 3 -17 6 -32 7 -68 5 -63 -1 -59 78 3 66 20
127 35 127 12 0 28 -16 40 -37 16 -30 45 -29 59 2 9 19 8 55 -2 55 0 0 -15 4
-31 8 -17 5 -42 6 -56 2z"/>
<path d="M7626 1637 c-59 -30 -59 -30 -37 -46 22 -17 22 -22 22 -222 1 -342 2
-318 -26 -331 -50 -22 -28 -33 70 -33 71 -1 95 2 95 12 0 7 -11 15 -24 19 -14
3 -27 11 -29 18 -3 7 -5 146 -5 310 1 163 -1 298 -3 299 -2 2 -31 -10 -63 -26z"/>
<path d="M11475 1663 c-58 -14 -109 -82 -120 -159 -10 -70 -15 -83 -36 -89
-22 -7 -21 -30 2 -30 8 0 17 -4 20 -9 9 -11 11 -280 3 -311 -3 -14 -16 -26
-31 -30 -13 -3 -23 -11 -21 -17 6 -17 198 -18 198 -2 0 7 -13 17 -30 23 -29
10 -30 12 -31 73 -2 166 0 258 4 265 3 5 22 8 41 7 27 -2 39 3 47 17 11 21 10
21 -51 23 -34 1 -35 2 -38 46 -5 60 6 123 23 146 14 18 16 17 48 -20 l34 -39
16 24 c20 28 22 53 5 66 -17 14 -58 21 -83 16z"/>
<path d="M3540 1633 c-54 -24 -54 -25 -33 -41 17 -13 22 -29 23 -72 3 -97 6
-92 -45 -84 -25 3 -60 3 -79 0 -59 -11 -125 -88 -141 -162 -9 -43 -6 -130 6
-161 16 -42 57 -91 89 -108 41 -21 109 -19 148 5 25 15 32 17 32 5 0 -25 18
-26 67 -3 52 25 72 60 31 56 l-23 -3 0 298 c0 196 -3 297 -10 296 -5 0 -35
-12 -65 -26z m-26 -242 c15 -17 18 -41 18 -176 -1 -139 -3 -158 -19 -171 -22
-17 -76 -10 -109 14 -79 59 -73 279 10 337 29 21 79 19 100 -4z"/>
<path d="M8278 1637 c-52 -22 -59 -35 -29 -54 16 -10 19 -24 19 -83 l0 -71
-44 7 c-91 13 -161 -24 -207 -110 -31 -60 -31 -173 2 -239 46 -94 165 -130
233 -70 14 13 17 12 23 -6 8 -27 15 -26 76 5 50 25 62 52 21 46 -26 -4 -24
-35 -23 321 1 214 -2 277 -12 276 -6 -1 -33 -10 -59 -22z m-32 -248 c17 -18
19 -40 21 -166 2 -81 -2 -153 -7 -163 -24 -44 -103 -31 -146 25 -54 71 -39
244 27 299 37 31 79 33 105 5z"/>
<path d="M9076 1633 c-49 -25 -49 -25 -28 -42 16 -12 21 -28 22 -71 3 -95 5
-90 -44 -84 -70 10 -113 -3 -156 -46 -52 -52 -71 -101 -72 -180 -1 -98 36
-171 104 -206 48 -25 138 -14 159 19 4 5 12 0 18 -12 11 -21 41 -30 41 -12 0
5 12 12 27 16 34 8 53 23 53 41 0 8 -9 13 -22 11 l-23 -2 -1 295 c0 248 -3
295 -15 296 -8 1 -36 -10 -63 -23z m-20 -247 c12 -20 16 -55 16 -177 0 -137
-2 -153 -19 -163 -50 -29 -113 -4 -145 57 -24 48 -29 151 -9 209 30 89 119
131 157 74z"/>
<path d="M11935 1633 l-49 -25 22 -17 c22 -16 22 -18 20 -281 -3 -264 -3 -265
-25 -275 -49 -21 -24 -32 72 -31 69 1 95 4 95 14 0 6 -6 12 -13 12 -8 0 -21 8
-30 18 -15 16 -17 52 -15 313 1 248 -1 294 -13 296 -8 0 -36 -10 -64 -24z"/>
<path d="M4492 1609 c-10 -15 -19 -19 -35 -14 -12 3 -41 9 -64 12 -36 4 -43 2
-56 -19 -17 -26 -31 -78 -21 -78 3 0 15 11 25 24 19 24 21 24 63 10 55 -19 91
-7 109 38 20 48 4 68 -21 27z"/>
<path d="M1897 1613 c-5 -8 -78 -241 -128 -408 -42 -140 -54 -163 -84 -171
-53 -13 -18 -28 68 -28 87 -1 98 2 75 22 -13 10 -19 12 -38 12 -14 0 -12 49 4
103 8 26 12 47 10 47 -3 0 0 8 5 18 7 14 22 18 70 17 33 0 65 -5 70 -10 5 -6
19 -44 30 -85 20 -72 18 -93 -10 -96 -5 -1 -14 -2 -20 -3 -6 0 -9 -6 -7 -12 4
-12 203 -17 214 -6 3 3 -8 13 -25 23 -19 11 -36 33 -46 59 -27 77 -155 481
-155 492 0 14 -27 36 -33 26z m7 -243 c35 -107 35 -106 -21 -105 -51 1 -54 5
-39 65 23 95 30 120 32 120 1 0 14 -36 28 -80z"/>
<path d="M3772 1599 c-19 -7 -23 -15 -20 -45 4 -44 29 -65 56 -48 20 13 26 36
18 69 -7 28 -24 35 -54 24z"/>
<path d="M7440 1602 c-36 -13 -45 -56 -19 -88 26 -32 69 -5 69 44 0 24 -30 51
-50 44z"/>
<path d="M7858 1602 c-34 -7 -37 -76 -5 -96 26 -16 51 4 55 45 3 37 -18 58
-50 51z"/>
<path d="M2434 1483 c-16 -21 -41 -49 -56 -61 -33 -28 -36 -42 -8 -42 24 0 22
12 24 -180 1 -182 11 -210 71 -210 44 0 81 17 100 46 16 25 2 45 -18 25 -19
-19 -57 -13 -65 12 -7 17 -9 263 -3 300 0 4 21 7 46 7 38 0 45 3 45 20 0 11
-6 21 -12 22 -7 0 -24 2 -38 3 -14 1 -30 3 -36 3 -6 1 -10 18 -9 37 2 55 -9
60 -41 18z"/>
<path d="M12184 1493 c-9 -15 -36 -45 -58 -65 l-41 -37 28 -10 27 -11 -1 -158
c-2 -139 0 -163 17 -190 15 -26 25 -32 52 -32 36 0 81 20 102 45 11 13 11 18
0 28 -10 9 -13 9 -17 0 -3 -7 -17 -13 -33 -13 -38 0 -42 15 -42 163 0 185 -5
167 46 167 35 0 45 4 49 20 5 21 3 21 -55 24 -35 1 -41 9 -40 51 2 45 -13 53
-34 18z"/>
<path d="M10163 1435 c-18 -25 -19 -26 -55 -10 -145 60 -279 -53 -274 -230 5
-155 115 -243 240 -191 l36 15 0 -90 0 -89 -30 -6 c-17 -4 -30 -13 -30 -21 0
-11 13 -14 63 -11 34 3 76 1 94 -3 42 -9 53 15 15 33 l-27 13 0 308 c0 169 -3
307 -7 307 -3 0 -15 -11 -25 -25z m-64 -62 c6 -14 11 -84 11 -168 0 -139 -1
-145 -23 -160 -42 -27 -115 2 -143 58 -35 66 -25 208 18 263 45 57 113 61 137
7z"/>
<path d="M2782 1430 c-16 -10 -33 -23 -36 -29 -12 -18 -25 -12 -21 9 6 34 -12
32 -62 -6 -57 -43 -60 -49 -34 -63 19 -10 20 -21 19 -151 l-1 -139 -29 -12
c-53 -22 -26 -33 77 -34 102 0 132 13 73 30 l-33 10 -5 90 c-11 192 11 270 60
217 38 -40 90 -24 90 28 0 50 -53 77 -98 50z"/>
<path d="M3018 1431 c-54 -18 -104 -63 -113 -103 -6 -21 -3 -29 10 -34 24 -9
44 5 66 45 25 46 49 71 70 71 27 0 38 -28 36 -95 l-2 -58 -65 -40 c-73 -44
-92 -63 -111 -109 -10 -25 -10 -38 2 -72 13 -37 17 -41 52 -44 29 -3 47 3 79
27 46 34 58 38 58 18 0 -8 9 -22 19 -31 25 -23 70 -14 101 19 27 29 20 43 -20
37 l-30 -4 -1 148 c0 82 -2 159 -3 172 -6 54 -73 78 -148 53z m71 -263 c-3
-66 -14 -93 -46 -107 -39 -18 -56 2 -50 58 3 31 12 50 28 63 20 16 54 35 67
37 2 1 2 -23 1 -51z"/>
<path d="M4384 1434 c-49 -17 -85 -44 -107 -81 -20 -35 -14 -63 14 -63 18 0
28 11 72 80 13 19 31 36 40 38 32 6 44 -15 46 -86 l2 -67 -53 -28 c-86 -46
-122 -83 -132 -140 -5 -31 9 -77 27 -89 26 -17 74 -7 115 23 24 17 44 30 45
28 2 -2 11 -16 20 -31 23 -37 60 -37 98 1 42 43 36 66 -11 41 -27 -14 -29 1
-32 193 -3 146 -5 159 -23 170 -34 20 -82 24 -121 11z m66 -270 c0 -25 -7 -58
-15 -74 -15 -29 -47 -46 -64 -36 -16 11 -23 66 -12 94 12 28 70 73 84 65 4 -2
7 -24 7 -49z"/>
<path d="M5984 1434 c-49 -17 -85 -44 -107 -81 -20 -35 -14 -63 14 -63 18 0
28 11 72 80 46 72 87 49 87 -49 l0 -67 -52 -27 c-98 -52 -143 -111 -132 -173
13 -71 73 -84 144 -32 31 23 45 29 48 19 8 -23 41 -51 62 -51 11 0 34 13 52
29 26 23 30 32 21 42 -9 9 -15 9 -26 0 -28 -23 -36 12 -39 182 -3 156 -4 169
-23 180 -34 20 -82 24 -121 11z m66 -274 c0 -63 -6 -78 -43 -97 -29 -14 -31
-14 -44 3 -17 23 -12 87 8 106 24 23 64 46 72 41 4 -2 7 -26 7 -53z"/>
<path d="M6775 1433 c-56 -19 -103 -59 -113 -96 -11 -39 -2 -52 31 -43 16 4
31 20 42 43 24 53 44 73 71 73 30 0 38 -31 35 -127 -1 -29 -7 -36 -59 -62 -94
-48 -130 -99 -122 -176 6 -61 82 -74 140 -25 42 36 44 36 58 5 17 -37 55 -42
97 -14 19 13 35 32 35 42 0 20 -4 21 -30 7 -31 -16 -37 8 -38 145 0 185 -1
189 -15 209 -19 26 -85 35 -132 19z m68 -270 c0 -54 -14 -87 -43 -103 -18 -10
-49 -5 -51 9 -13 62 7 111 55 134 17 8 33 13 35 11 1 -1 3 -24 4 -51z"/>
<path d="M11687 1444 c-2 -2 -12 -5 -23 -7 -37 -7 -69 -25 -97 -54 -33 -36
-41 -85 -14 -91 20 -4 57 24 57 44 0 21 51 74 71 74 25 0 37 -33 37 -96 0 -47
-18 -84 -40 -84 -25 0 -118 -74 -133 -106 -25 -53 -13 -112 28 -129 37 -15 50
-12 100 27 l37 29 26 -30 c15 -18 35 -31 49 -31 31 0 92 57 77 72 -8 8 -15 8
-27 -2 -28 -23 -35 6 -36 163 -1 81 -3 152 -4 157 -1 6 -3 16 -4 24 0 8 -9 17
-18 21 -27 11 -82 23 -86 19z m31 -276 c0 -57 -14 -93 -43 -108 -46 -24 -71
28 -45 94 9 23 52 55 76 56 7 0 12 -17 12 -42z"/>
<path d="M12475 1436 c-49 -11 -128 -87 -123 -119 7 -50 67 -24 90 39 14 40
52 63 76 47 13 -8 17 -27 19 -80 l2 -69 -37 -19 c-132 -68 -176 -143 -133
-223 18 -34 77 -30 127 8 44 33 54 36 54 17 0 -20 33 -47 58 -47 12 0 36 13
54 29 26 23 30 32 21 42 -9 9 -16 9 -25 1 -30 -25 -37 2 -40 170 -3 143 -5
169 -21 186 -22 24 -69 31 -122 18z m61 -273 c-4 -71 -10 -86 -41 -103 -44
-23 -67 19 -49 88 5 17 74 71 91 72 2 0 1 -26 -1 -57z"/>
<path d="M13207 1439 c-20 -3 -52 -14 -70 -24 -37 -20 -80 -78 -75 -103 8 -40
69 -16 84 32 10 33 45 66 70 66 18 0 23 -7 28 -37 4 -21 5 -55 4 -76 -1 -39
-15 -53 -81 -87 -75 -37 -114 -104 -100 -170 13 -66 108 -66 160 0 10 13 16
10 40 -19 25 -29 33 -33 60 -27 41 9 81 52 65 68 -9 9 -15 9 -23 1 -6 -6 -18
-9 -25 -6 -11 4 -14 39 -14 168 0 147 -2 165 -20 187 -23 29 -49 36 -103 27z
m41 -282 c-1 -58 -10 -77 -46 -96 -18 -10 -27 -10 -38 0 -17 14 -18 66 -1 97
14 24 67 62 79 56 3 -2 6 -28 6 -57z"/>
<path d="M16395 1429 c-56 -21 -90 -51 -103 -89 -25 -70 40 -65 78 6 51 96 93
87 98 -22 l3 -69 -74 -43 c-81 -48 -109 -83 -110 -142 -2 -90 84 -108 161 -33
16 15 32 17 32 3 0 -18 40 -50 63 -50 25 0 77 44 77 65 0 18 -5 18 -30 5 -31
-17 -38 9 -38 145 -1 183 -1 188 -17 209 -22 29 -85 36 -140 15z m75 -268 c0
-66 -19 -99 -59 -103 -33 -4 -50 46 -30 88 11 23 70 74 85 74 2 0 4 -27 4 -59z"/>
<path d="M18333 1438 c-53 -14 -99 -46 -118 -82 -41 -75 18 -93 62 -18 35 60
47 72 72 72 27 0 30 -8 36 -84 l4 -66 -39 -25 c-22 -14 -42 -25 -45 -25 -18 0
-80 -59 -91 -87 -47 -111 38 -177 128 -103 l37 31 29 -32 c24 -27 33 -31 56
-25 33 8 80 56 68 68 -5 5 -20 4 -35 -1 -31 -12 -29 -31 -31 192 -2 163 -5
172 -67 186 -19 4 -49 4 -66 -1z m52 -282 c-4 -60 -19 -92 -49 -100 -29 -7
-46 11 -46 51 0 44 14 69 48 87 45 25 50 21 47 -38z"/>
<path d="M3760 1404 c-25 -20 -47 -38 -50 -41 -3 -2 4 -11 14 -19 17 -12 19
-28 21 -141 2 -148 0 -160 -27 -169 -10 -3 -17 -11 -15 -17 5 -15 166 -17 175
-3 3 6 1 11 -5 13 -6 2 -19 10 -29 17 -17 13 -19 30 -19 202 0 116 -4 188 -10
190 -6 2 -30 -13 -55 -32z"/>
<path d="M4025 1424 c-45 -25 -65 -45 -87 -88 -47 -92 -31 -232 33 -297 21
-21 49 -41 63 -45 27 -6 30 -12 26 -51 -1 -18 4 -23 23 -23 33 0 49 -22 41
-54 -5 -21 -12 -26 -36 -26 -16 0 -42 7 -57 15 -30 15 -41 11 -41 -14 0 -18
70 -44 116 -43 35 0 65 32 71 75 4 30 0 41 -22 63 -17 17 -33 24 -46 21 -14
-4 -19 0 -19 14 0 13 7 19 23 19 29 0 83 33 97 60 17 31 6 35 -33 13 -90 -53
-177 23 -179 157 -2 108 43 195 99 188 19 -2 32 -15 52 -52 32 -61 47 -67 59
-24 11 41 6 61 -19 84 -28 25 -125 30 -164 8z"/>
<path d="M4740 1424 c-84 -36 -115 -94 -115 -214 0 -101 22 -151 88 -193 75
-49 206 -28 255 41 62 86 59 247 -6 320 -53 59 -147 79 -222 46z m134 -39 c51
-51 71 -209 38 -295 -24 -61 -85 -88 -137 -60 -51 27 -80 157 -62 272 16 96
103 141 161 83z"/>
<path d="M5364 1415 c-67 -40 -97 -105 -96 -206 0 -96 30 -162 90 -201 34 -23
122 -24 165 -2 37 19 77 61 77 81 0 17 -1 17 -41 -12 -27 -20 -44 -25 -82 -24
-42 2 -52 7 -77 37 -31 37 -51 99 -48 150 1 36 -6 35 144 32 107 -1 119 6 103
63 -26 96 -143 137 -235 82z m133 -18 c20 -20 25 -63 9 -76 -16 -14 -119 -22
-136 -11 -18 11 -1 58 32 85 32 27 70 28 95 2z"/>
<path d="M7125 1423 c-74 -39 -107 -97 -111 -197 -6 -141 65 -237 175 -238 42
0 103 27 119 53 20 32 4 40 -38 18 -34 -18 -45 -19 -74 -9 -62 20 -98 87 -97
181 0 156 110 241 152 119 13 -35 46 -59 54 -38 6 16 9 47 7 74 -4 47 -124 71
-187 37z"/>
<path d="M7412 1399 l-53 -40 22 -18 c21 -17 23 -25 22 -152 -1 -123 -2 -134
-22 -150 -11 -10 -21 -21 -21 -26 0 -14 173 -10 178 5 2 6 -2 12 -10 12 -40 1
-43 12 -43 211 0 119 -4 193 -10 195 -6 2 -34 -15 -63 -37z"/>
<path d="M7843 1404 c-29 -19 -53 -42 -53 -50 0 -8 5 -12 10 -9 19 12 25 -34
24 -162 -2 -155 0 -140 -25 -148 -45 -15 -10 -28 74 -29 90 -2 111 10 62 32
-16 7 -25 20 -26 34 0 13 0 101 -1 196 0 94 -3 172 -6 172 -4 0 -31 -16 -59
-36z"/>
<path d="M8530 1423 c-44 -20 -81 -64 -83 -100 -2 -24 2 -28 23 -28 19 0 31
12 54 53 31 53 67 75 88 54 6 -6 12 -39 13 -73 3 -70 4 -68 -94 -131 -71 -46
-97 -89 -87 -146 7 -47 23 -62 63 -62 32 0 88 29 105 55 4 6 19 -3 36 -24 23
-28 33 -33 55 -27 40 10 85 52 71 66 -9 9 -17 9 -33 0 -17 -8 -22 -8 -26 2 -3
7 -6 87 -7 176 -3 159 -4 164 -27 183 -29 24 -101 25 -151 2z m98 -256 c0 -78
-48 -136 -85 -105 -22 18 -16 84 10 111 26 28 59 47 69 41 4 -2 7 -23 6 -47z"/>
<path d="M9354 1426 c-39 -17 -88 -76 -102 -122 -6 -19 -10 -68 -8 -107 3
-132 64 -207 167 -207 60 0 110 21 144 62 34 40 22 52 -22 23 -40 -28 -93 -32
-132 -12 -50 25 -102 189 -65 204 7 2 64 5 126 6 112 2 113 2 114 27 3 34 -25
89 -57 112 -33 25 -124 33 -165 14z m116 -31 c25 -23 26 -60 0 -78 -27 -19
-135 -16 -136 3 -2 42 54 100 93 95 13 -1 32 -10 43 -20z"/>
<path d="M10824 1426 c-77 -34 -114 -113 -110 -228 5 -123 55 -196 140 -205
71 -8 112 4 157 47 46 43 46 73 0 39 -79 -58 -170 -28 -201 66 -15 44 -19 114
-8 121 4 3 60 6 124 6 130 1 135 3 115 68 -23 79 -136 123 -217 86z m96 -16
c18 0 40 -33 40 -60 0 -34 -18 -42 -97 -45 -60 -3 -67 6 -44 55 17 36 56 63
79 55 8 -3 17 -5 22 -5z"/>
<path d="M13503 1426 c-4 -8 -25 -24 -45 -36 -43 -25 -45 -30 -19 -52 16 -14
18 -31 18 -153 0 -134 -1 -137 -24 -148 -22 -10 -31 -26 -15 -28 4 0 44 -2 90
-3 85 -1 106 10 57 32 -25 12 -25 12 -25 150 0 126 2 142 21 166 23 30 68 35
93 11 19 -20 28 -83 29 -205 0 -100 -9 -130 -39 -130 -7 0 -11 -6 -8 -14 4
-10 26 -13 89 -12 46 1 87 4 90 8 4 3 -7 14 -23 24 l-30 17 2 136 c1 160 13
191 69 191 54 0 69 -37 69 -173 0 -167 1 -164 -23 -170 -12 -3 -19 -11 -17
-18 5 -16 170 -19 175 -3 2 7 -8 14 -22 18 -29 7 -27 -4 -29 161 -3 158 -9
187 -48 220 -44 37 -94 34 -144 -9 l-40 -35 -25 30 c-41 49 -116 51 -160 4
-27 -28 -44 -33 -35 -10 12 32 -15 59 -31 31z"/>
<path d="M14380 1422 c-84 -46 -124 -171 -94 -290 25 -96 77 -142 163 -142 63
0 128 32 151 74 19 37 6 43 -30 12 -23 -19 -43 -26 -74 -26 -77 0 -122 57
-132 167 l-5 53 65 1 c36 0 91 1 122 2 40 0 57 5 63 16 13 26 -6 74 -43 110
-28 27 -43 33 -92 38 -46 3 -67 0 -94 -15z m125 -27 c28 -27 31 -43 12 -69
-10 -14 -28 -18 -78 -20 l-64 -1 2 29 c2 31 27 64 58 77 33 13 45 10 70 -16z"/>
<path d="M14729 1412 c-20 -15 -45 -32 -55 -38 -18 -11 -18 -12 4 -30 22 -18
23 -26 24 -153 2 -126 0 -135 -20 -152 -12 -9 -22 -21 -22 -26 0 -10 166 -11
176 -1 4 4 -5 13 -20 19 -14 7 -28 19 -30 28 -3 9 -4 75 -3 148 3 150 12 173
73 173 52 0 66 -37 69 -184 2 -122 -7 -166 -32 -166 -8 0 -13 -6 -10 -12 5
-17 169 -18 174 -2 2 7 -7 14 -20 18 -14 3 -27 14 -29 23 -3 15 -3 191 1 261
2 35 37 64 74 60 49 -5 61 -40 62 -183 2 -140 -1 -152 -27 -161 -10 -3 -17
-11 -15 -17 5 -15 169 -16 174 -1 2 6 -8 16 -22 22 -18 8 -25 20 -26 39 0 16
-1 84 -3 153 -1 78 -7 135 -15 151 -16 32 -60 59 -96 59 -30 0 -90 -33 -103
-56 -7 -13 -15 -9 -44 20 -49 49 -101 50 -153 5 l-35 -31 0 31 c0 37 -4 37
-51 3z"/>
<path d="M15588 1425 c-53 -30 -78 -123 -46 -175 7 -12 43 -39 79 -60 95 -56
111 -85 78 -139 -15 -25 -25 -31 -53 -31 -39 0 -67 28 -86 86 -7 19 -17 33
-23 31 -12 -4 -19 -77 -11 -108 10 -39 118 -52 180 -23 53 25 77 73 72 144 -5
67 -25 93 -101 131 -57 29 -77 48 -77 75 0 55 73 74 109 28 12 -15 21 -33 21
-40 0 -8 6 -14 14 -14 19 0 25 64 9 86 -18 25 -127 31 -165 9z"/>
<path d="M16933 1427 c-4 -7 -25 -23 -45 -36 -43 -26 -46 -36 -19 -51 18 -9
19 -21 18 -152 -2 -135 -3 -143 -24 -153 -38 -19 -11 -30 72 -30 64 0 80 3 80
15 0 8 -5 15 -12 15 -30 0 -34 24 -31 168 3 132 5 148 23 161 21 16 53 20 79
10 24 -9 36 -69 37 -199 l2 -119 -29 -23 c-16 -12 -24 -23 -19 -24 52 -5 177
-3 181 3 3 4 -6 13 -21 20 -33 15 -35 28 -32 179 2 140 14 169 66 169 61 -1
73 -33 73 -194 -1 -121 -2 -132 -22 -148 -12 -10 -19 -21 -17 -25 7 -11 166
-10 170 1 1 5 -7 14 -18 20 -11 6 -22 12 -25 14 -2 2 -5 65 -6 140 -1 166 -7
194 -47 228 -43 36 -106 30 -150 -15 l-31 -30 -28 31 c-24 27 -37 33 -76 34
-40 2 -51 -2 -79 -29 -33 -31 -38 -28 -34 16 3 20 -24 23 -36 4z"/>
<path d="M17600 1419 c-71 -44 -102 -110 -99 -214 4 -137 64 -214 167 -216 46
0 59 3 97 23 40 21 68 53 63 73 -3 14 -7 13 -32 -8 -88 -76 -201 -3 -210 137
-3 51 -2 56 18 56 11 1 67 1 124 1 56 0 103 3 103 7 11 57 -19 116 -71 143
-47 26 -116 24 -160 -2z m130 -24 c23 -21 26 -58 6 -75 -15 -12 -111 -21 -133
-13 -22 9 2 72 38 97 26 18 63 14 89 -9z"/>
<path d="M17965 1430 c-39 -16 -65 -55 -71 -106 -6 -43 -3 -54 19 -79 14 -17
50 -43 80 -60 63 -33 92 -73 82 -112 -12 -49 -46 -67 -92 -48 -25 10 -36 25
-50 64 -25 70 -43 67 -43 -8 0 -73 11 -84 96 -89 58 -4 68 -2 100 23 46 35 63
77 58 139 -5 57 -30 90 -97 124 -60 31 -76 46 -81 73 -5 32 21 59 57 59 30 0
50 -17 67 -58 14 -34 35 -21 36 22 1 27 -4 41 -20 51 -22 16 -108 19 -141 5z"/>
<path d="M10250 1413 c0 -8 9 -17 20 -20 26 -7 28 -18 28 -172 0 -110 3 -139
18 -167 37 -68 137 -83 193 -30 32 30 45 33 37 9 -9 -30 8 -47 40 -38 16 5 31
8 34 7 3 0 17 8 30 19 l25 19 -23 6 c-29 8 -31 22 -31 199 1 83 0 157 0 165
-1 12 -16 15 -66 17 -70 1 -87 -14 -40 -35 25 -12 25 -12 25 -152 0 -136 -1
-142 -25 -165 -36 -37 -94 -33 -118 9 -7 13 -14 82 -17 180 l-5 159 -62 3
c-50 2 -63 -1 -63 -13z"/>
<path d="M12909 1419 c-11 -6 6 -22 34 -32 14 -5 17 -14 13 -34 -9 -53 -62
-208 -70 -208 -8 0 -45 109 -66 191 -8 35 3 64 25 64 8 0 15 5 15 10 0 11
-172 15 -183 4 -3 -3 7 -18 23 -32 22 -21 40 -65 85 -204 31 -98 61 -180 66
-184 12 -7 46 75 110 260 30 89 56 133 80 139 11 3 19 11 17 17 -4 13 -132 20
-149 9z"/>
<path d="M15820 1414 c0 -9 9 -18 20 -21 26 -7 29 -21 28 -153 0 -167 12 -208
69 -239 44 -23 119 -7 152 33 20 24 29 19 26 -14 -3 -34 14 -38 74 -16 42 15
49 31 22 45 -18 10 -19 21 -19 186 1 96 -1 178 -4 181 -4 3 -34 7 -67 9 -49 3
-61 1 -61 -11 0 -8 11 -19 25 -24 25 -9 25 -10 25 -142 0 -87 -5 -142 -13
-158 -24 -48 -103 -52 -129 -7 -8 14 -15 79 -18 181 l-5 159 -62 3 c-52 2 -63
0 -63 -12z"/>
<path d="M18608 1083 c-8 -10 -14 -25 -13 -33 1 -8 3 -20 3 -27 1 -7 11 -17
22 -23 15 -8 24 -6 40 10 24 24 26 53 4 74 -20 21 -37 20 -56 -1z"/>
</g>
</svg>
